<mxfile host="app.diagrams.net" modified="2021-01-05T03:00:00.543Z" agent="5.0 (Windows NT 10.0; Win64; x64) AppleWebKit/537.36 (KHTML, like Gecko) Chrome/84.0.4147.125 Safari/537.36" etag="RiiqFcnO8_x8yCxY-h6_" version="14.1.8" type="github">
  <diagram id="PUrRE41Iz-RrbDxnnE0k" name="Page-1">
    <mxGraphModel dx="868" dy="482" grid="1" gridSize="10" guides="1" tooltips="1" connect="1" arrows="1" fold="1" page="1" pageScale="1" pageWidth="850" pageHeight="1100" math="0" shadow="0">
      <root>
        <mxCell id="0" />
        <mxCell id="1" parent="0" />
        <mxCell id="T6MMTxl71kh38wbVqUGL-4" value="" style="edgeStyle=orthogonalEdgeStyle;rounded=0;orthogonalLoop=1;jettySize=auto;html=1;entryX=0;entryY=0.5;entryDx=0;entryDy=0;exitX=1;exitY=0.5;exitDx=0;exitDy=0;" parent="1" source="T6MMTxl71kh38wbVqUGL-1" target="T6MMTxl71kh38wbVqUGL-3" edge="1">
          <mxGeometry relative="1" as="geometry" />
        </mxCell>
        <mxCell id="T6MMTxl71kh38wbVqUGL-18" style="edgeStyle=orthogonalEdgeStyle;rounded=0;orthogonalLoop=1;jettySize=auto;html=1;exitX=0.5;exitY=1;exitDx=0;exitDy=0;entryX=0.5;entryY=0;entryDx=0;entryDy=0;" parent="1" source="T6MMTxl71kh38wbVqUGL-1" target="T6MMTxl71kh38wbVqUGL-17" edge="1">
          <mxGeometry relative="1" as="geometry" />
        </mxCell>
        <mxCell id="T6MMTxl71kh38wbVqUGL-1" value="Load &lt;br&gt;Balancer" style="whiteSpace=wrap;html=1;aspect=fixed;" parent="1" vertex="1">
          <mxGeometry x="240" y="230" width="80" height="80" as="geometry" />
        </mxCell>
        <mxCell id="T6MMTxl71kh38wbVqUGL-16" style="edgeStyle=orthogonalEdgeStyle;rounded=0;orthogonalLoop=1;jettySize=auto;html=1;exitX=1;exitY=0.5;exitDx=0;exitDy=0;entryX=0;entryY=0.5;entryDx=0;entryDy=0;" parent="1" source="T6MMTxl71kh38wbVqUGL-2" target="T6MMTxl71kh38wbVqUGL-1" edge="1">
          <mxGeometry relative="1" as="geometry" />
        </mxCell>
        <mxCell id="T6MMTxl71kh38wbVqUGL-2" value="Service A" style="whiteSpace=wrap;html=1;aspect=fixed;" parent="1" vertex="1">
          <mxGeometry x="20" y="230" width="80" height="80" as="geometry" />
        </mxCell>
        <mxCell id="T6MMTxl71kh38wbVqUGL-21" style="edgeStyle=orthogonalEdgeStyle;rounded=0;orthogonalLoop=1;jettySize=auto;html=1;exitX=1;exitY=0.5;exitDx=0;exitDy=0;entryX=1;entryY=0.5;entryDx=0;entryDy=0;" parent="1" source="T6MMTxl71kh38wbVqUGL-3" target="T6MMTxl71kh38wbVqUGL-17" edge="1">
          <mxGeometry relative="1" as="geometry" />
        </mxCell>
        <mxCell id="T6MMTxl71kh38wbVqUGL-3" value="Service B&lt;br&gt;Instance 1" style="whiteSpace=wrap;html=1;aspect=fixed;" parent="1" vertex="1">
          <mxGeometry x="500" y="130" width="80" height="80" as="geometry" />
        </mxCell>
        <mxCell id="T6MMTxl71kh38wbVqUGL-24" style="edgeStyle=orthogonalEdgeStyle;rounded=0;orthogonalLoop=1;jettySize=auto;html=1;exitX=1;exitY=0.5;exitDx=0;exitDy=0;entryX=1;entryY=0.5;entryDx=0;entryDy=0;" parent="1" source="T6MMTxl71kh38wbVqUGL-5" target="T6MMTxl71kh38wbVqUGL-17" edge="1">
          <mxGeometry relative="1" as="geometry" />
        </mxCell>
        <mxCell id="T6MMTxl71kh38wbVqUGL-5" value="Service B&lt;br&gt;Instance 2" style="whiteSpace=wrap;html=1;aspect=fixed;" parent="1" vertex="1">
          <mxGeometry x="500" y="230" width="80" height="80" as="geometry" />
        </mxCell>
        <mxCell id="T6MMTxl71kh38wbVqUGL-7" value="" style="endArrow=classic;html=1;exitX=1;exitY=0.5;exitDx=0;exitDy=0;entryX=0;entryY=0.5;entryDx=0;entryDy=0;" parent="1" source="T6MMTxl71kh38wbVqUGL-1" target="T6MMTxl71kh38wbVqUGL-5" edge="1">
          <mxGeometry width="50" height="50" relative="1" as="geometry">
            <mxPoint x="400" y="280" as="sourcePoint" />
            <mxPoint x="450" y="230" as="targetPoint" />
          </mxGeometry>
        </mxCell>
        <mxCell id="T6MMTxl71kh38wbVqUGL-23" style="edgeStyle=orthogonalEdgeStyle;rounded=0;orthogonalLoop=1;jettySize=auto;html=1;exitX=1;exitY=0.5;exitDx=0;exitDy=0;entryX=1;entryY=0.5;entryDx=0;entryDy=0;" parent="1" source="T6MMTxl71kh38wbVqUGL-13" target="T6MMTxl71kh38wbVqUGL-17" edge="1">
          <mxGeometry relative="1" as="geometry" />
        </mxCell>
        <mxCell id="T6MMTxl71kh38wbVqUGL-13" value="Service B&lt;br&gt;Instance 3" style="whiteSpace=wrap;html=1;aspect=fixed;" parent="1" vertex="1">
          <mxGeometry x="500" y="330" width="80" height="80" as="geometry" />
        </mxCell>
        <mxCell id="T6MMTxl71kh38wbVqUGL-14" value="" style="edgeStyle=orthogonalEdgeStyle;rounded=0;orthogonalLoop=1;jettySize=auto;html=1;entryX=0;entryY=0.5;entryDx=0;entryDy=0;exitX=1;exitY=0.5;exitDx=0;exitDy=0;" parent="1" target="T6MMTxl71kh38wbVqUGL-13" edge="1">
          <mxGeometry relative="1" as="geometry">
            <mxPoint x="390" y="270" as="sourcePoint" />
            <mxPoint x="500" y="170" as="targetPoint" />
            <Array as="points">
              <mxPoint x="410" y="270" />
              <mxPoint x="410" y="370" />
            </Array>
          </mxGeometry>
        </mxCell>
        <mxCell id="T6MMTxl71kh38wbVqUGL-15" value="4) Load Balance" style="text;html=1;align=center;verticalAlign=middle;resizable=0;points=[];autosize=1;" parent="1" vertex="1">
          <mxGeometry x="315" y="250" width="100" height="20" as="geometry" />
        </mxCell>
        <mxCell id="T6MMTxl71kh38wbVqUGL-17" value="Service Registry" style="whiteSpace=wrap;html=1;aspect=fixed;" parent="1" vertex="1">
          <mxGeometry x="240" y="440" width="80" height="80" as="geometry" />
        </mxCell>
        <mxCell id="T6MMTxl71kh38wbVqUGL-19" value="3) Rest API" style="text;html=1;align=center;verticalAlign=middle;resizable=0;points=[];autosize=1;" parent="1" vertex="1">
          <mxGeometry x="130" y="250" width="80" height="20" as="geometry" />
        </mxCell>
        <mxCell id="T6MMTxl71kh38wbVqUGL-20" value="2) Query for &lt;br&gt;Backend server" style="text;html=1;align=center;verticalAlign=middle;resizable=0;points=[];autosize=1;" parent="1" vertex="1">
          <mxGeometry x="280" y="370" width="100" height="30" as="geometry" />
        </mxCell>
        <mxCell id="T6MMTxl71kh38wbVqUGL-25" value="1) Register API" style="text;html=1;align=center;verticalAlign=middle;resizable=0;points=[];autosize=1;" parent="1" vertex="1">
          <mxGeometry x="375" y="460" width="100" height="20" as="geometry" />
        </mxCell>
        <mxCell id="wCQVI0wv1kOe9CwyudKi-1" value="Text" style="text;html=1;align=center;verticalAlign=middle;resizable=0;points=[];autosize=1;" vertex="1" parent="1">
          <mxGeometry x="100" y="460" width="40" height="20" as="geometry" />
        </mxCell>
      </root>
    </mxGraphModel>
  </diagram>
</mxfile>
